G04 #@! TF.GenerationSoftware,KiCad,Pcbnew,(5.0.1-3-g963ef8bb5)*
G04 #@! TF.CreationDate,2019-03-29T02:03:15-07:00*
G04 #@! TF.ProjectId,Custom-Keyboard,437573746F6D2D4B6579626F6172642E,rev?*
G04 #@! TF.SameCoordinates,Original*
G04 #@! TF.FileFunction,Legend,Top*
G04 #@! TF.FilePolarity,Positive*
%FSLAX46Y46*%
G04 Gerber Fmt 4.6, Leading zero omitted, Abs format (unit mm)*
G04 Created by KiCad (PCBNEW (5.0.1-3-g963ef8bb5)) date Friday, March 29, 2019 at 02:03:15 AM*
%MOMM*%
%LPD*%
G01*
G04 APERTURE LIST*
%ADD10C,1.852000*%
%ADD11C,4.089800*%
%ADD12C,3.150000*%
%ADD13O,1.802000X2.802000*%
G04 APERTURE END LIST*
%LPC*%
D10*
G04 #@! TO.C,AKEY1*
X172561250Y-67468750D03*
X162401250Y-67468750D03*
D11*
X167481250Y-67468750D03*
G04 #@! TD*
G04 #@! TO.C,ALT1*
X184150000Y-105568750D03*
D10*
X179070000Y-105568750D03*
X189230000Y-105568750D03*
G04 #@! TD*
D11*
G04 #@! TO.C,BACK1*
X391318750Y-29368750D03*
D10*
X386238750Y-29368750D03*
X396398750Y-29368750D03*
D12*
X379380750Y-22383750D03*
X403256750Y-22383750D03*
D11*
X379380750Y-37623750D03*
X403256750Y-37623750D03*
G04 #@! TD*
D10*
G04 #@! TO.C,BKEY1*
X258286250Y-86518750D03*
X248126250Y-86518750D03*
D11*
X253206250Y-86518750D03*
G04 #@! TD*
D10*
G04 #@! TO.C,BSLSH1*
X401161250Y-48418750D03*
X391001250Y-48418750D03*
D11*
X396081250Y-48418750D03*
G04 #@! TD*
G04 #@! TO.C,CAPS1*
X141287500Y-67468750D03*
D10*
X136207500Y-67468750D03*
X146367500Y-67468750D03*
G04 #@! TD*
G04 #@! TO.C,CBRAC1*
X377348750Y-48418750D03*
X367188750Y-48418750D03*
D11*
X372268750Y-48418750D03*
G04 #@! TD*
G04 #@! TO.C,CKEY1*
X215106250Y-86518750D03*
D10*
X210026250Y-86518750D03*
X220186250Y-86518750D03*
G04 #@! TD*
G04 #@! TO.C,CLN1*
X344011250Y-67468750D03*
X333851250Y-67468750D03*
D11*
X338931250Y-67468750D03*
G04 #@! TD*
D10*
G04 #@! TO.C,CMMA1*
X315436250Y-86518750D03*
X305276250Y-86518750D03*
D11*
X310356250Y-86518750D03*
G04 #@! TD*
G04 #@! TO.C,CTRL1*
X136525000Y-105568750D03*
D10*
X131445000Y-105568750D03*
X141605000Y-105568750D03*
G04 #@! TD*
D11*
G04 #@! TO.C,DEL1*
X89693750Y-105568750D03*
D10*
X84613750Y-105568750D03*
X94773750Y-105568750D03*
G04 #@! TD*
D11*
G04 #@! TO.C,DIV1*
X51593750Y-29368750D03*
D10*
X46513750Y-29368750D03*
X56673750Y-29368750D03*
G04 #@! TD*
G04 #@! TO.C,DKEY1*
X210661250Y-67468750D03*
X200501250Y-67468750D03*
D11*
X205581250Y-67468750D03*
G04 #@! TD*
G04 #@! TO.C,DOWN1*
X111918750Y-127793750D03*
D10*
X106838750Y-127793750D03*
X116998750Y-127793750D03*
G04 #@! TD*
D11*
G04 #@! TO.C,EIGHT1*
X70643750Y-48418750D03*
D10*
X65563750Y-48418750D03*
X75723750Y-48418750D03*
G04 #@! TD*
D11*
G04 #@! TO.C,EIGHT2*
X286543750Y-29368750D03*
D10*
X281463750Y-29368750D03*
X291623750Y-29368750D03*
G04 #@! TD*
D11*
G04 #@! TO.C,EKEY1*
X200818750Y-48418750D03*
D10*
X195738750Y-48418750D03*
X205898750Y-48418750D03*
G04 #@! TD*
D11*
G04 #@! TO.C,ENTER2*
X388937500Y-67468750D03*
D10*
X383857500Y-67468750D03*
X394017500Y-67468750D03*
D12*
X376999500Y-60483750D03*
X400875500Y-60483750D03*
D11*
X376999500Y-75723750D03*
X400875500Y-75723750D03*
G04 #@! TD*
G04 #@! TO.C,EQUALS1*
X362743750Y-29368750D03*
D10*
X357663750Y-29368750D03*
X367823750Y-29368750D03*
G04 #@! TD*
G04 #@! TO.C,ESC1*
X37623750Y-29368750D03*
X27463750Y-29368750D03*
D11*
X32543750Y-29368750D03*
G04 #@! TD*
D10*
G04 #@! TO.C,FIVE1*
X75723750Y-67468750D03*
X65563750Y-67468750D03*
D11*
X70643750Y-67468750D03*
G04 #@! TD*
G04 #@! TO.C,FIVE2*
X229393750Y-29368750D03*
D10*
X224313750Y-29368750D03*
X234473750Y-29368750D03*
G04 #@! TD*
G04 #@! TO.C,FKEY1*
X229711250Y-67468750D03*
X219551250Y-67468750D03*
D11*
X224631250Y-67468750D03*
G04 #@! TD*
D10*
G04 #@! TO.C,FN1*
X332105000Y-105568750D03*
X321945000Y-105568750D03*
D11*
X327025000Y-105568750D03*
G04 #@! TD*
D10*
G04 #@! TO.C,FOUR1*
X56673750Y-67468750D03*
X46513750Y-67468750D03*
D11*
X51593750Y-67468750D03*
G04 #@! TD*
G04 #@! TO.C,FOUR2*
X210343750Y-29368750D03*
D10*
X205263750Y-29368750D03*
X215423750Y-29368750D03*
G04 #@! TD*
G04 #@! TO.C,FSLSH1*
X353536250Y-86518750D03*
X343376250Y-86518750D03*
D11*
X348456250Y-86518750D03*
G04 #@! TD*
D10*
G04 #@! TO.C,GKEY1*
X248761250Y-67468750D03*
X238601250Y-67468750D03*
D11*
X243681250Y-67468750D03*
G04 #@! TD*
D10*
G04 #@! TO.C,HKEY1*
X267811250Y-67468750D03*
X257651250Y-67468750D03*
D11*
X262731250Y-67468750D03*
G04 #@! TD*
D10*
G04 #@! TO.C,IKEY1*
X301148750Y-48418750D03*
X290988750Y-48418750D03*
D11*
X296068750Y-48418750D03*
G04 #@! TD*
D10*
G04 #@! TO.C,JKEY1*
X286861250Y-67468750D03*
X276701250Y-67468750D03*
D11*
X281781250Y-67468750D03*
G04 #@! TD*
D10*
G04 #@! TO.C,KKEY1*
X305911250Y-67468750D03*
X295751250Y-67468750D03*
D11*
X300831250Y-67468750D03*
G04 #@! TD*
G04 #@! TO.C,LEFT1*
X92868750Y-127793750D03*
D10*
X87788750Y-127793750D03*
X97948750Y-127793750D03*
G04 #@! TD*
G04 #@! TO.C,LKEY1*
X324961250Y-67468750D03*
X314801250Y-67468750D03*
D11*
X319881250Y-67468750D03*
G04 #@! TD*
G04 #@! TO.C,LOWER1*
X350837500Y-105568750D03*
D10*
X345757500Y-105568750D03*
X355917500Y-105568750D03*
G04 #@! TD*
D11*
G04 #@! TO.C,MACRO1*
X419893750Y-29368750D03*
D10*
X414813750Y-29368750D03*
X424973750Y-29368750D03*
G04 #@! TD*
G04 #@! TO.C,MACRO2*
X424973750Y-48418750D03*
X414813750Y-48418750D03*
D11*
X419893750Y-48418750D03*
G04 #@! TD*
D10*
G04 #@! TO.C,MACRO3*
X424973750Y-67468750D03*
X414813750Y-67468750D03*
D11*
X419893750Y-67468750D03*
G04 #@! TD*
G04 #@! TO.C,MACRO4*
X419893750Y-86518750D03*
D10*
X414813750Y-86518750D03*
X424973750Y-86518750D03*
G04 #@! TD*
D11*
G04 #@! TO.C,MINUS1*
X89693750Y-29368750D03*
D10*
X84613750Y-29368750D03*
X94773750Y-29368750D03*
G04 #@! TD*
D11*
G04 #@! TO.C,MINUS2*
X343693750Y-29368750D03*
D10*
X338613750Y-29368750D03*
X348773750Y-29368750D03*
G04 #@! TD*
G04 #@! TO.C,MKEY1*
X296386250Y-86518750D03*
X286226250Y-86518750D03*
D11*
X291306250Y-86518750D03*
G04 #@! TD*
G04 #@! TO.C,MULT1*
X70643750Y-29368750D03*
D10*
X65563750Y-29368750D03*
X75723750Y-29368750D03*
G04 #@! TD*
D11*
G04 #@! TO.C,NINE1*
X89693750Y-48418750D03*
D10*
X84613750Y-48418750D03*
X94773750Y-48418750D03*
G04 #@! TD*
D11*
G04 #@! TO.C,NINE2*
X305593750Y-29368750D03*
D10*
X300513750Y-29368750D03*
X310673750Y-29368750D03*
G04 #@! TD*
G04 #@! TO.C,NKEY1*
X277336250Y-86518750D03*
X267176250Y-86518750D03*
D11*
X272256250Y-86518750D03*
G04 #@! TD*
D10*
G04 #@! TO.C,NUM1*
X37623750Y-48418750D03*
X27463750Y-48418750D03*
D11*
X32543750Y-48418750D03*
G04 #@! TD*
D10*
G04 #@! TO.C,OBRAC1*
X358298750Y-48418750D03*
X348138750Y-48418750D03*
D11*
X353218750Y-48418750D03*
G04 #@! TD*
D10*
G04 #@! TO.C,OKEY1*
X320198750Y-48418750D03*
X310038750Y-48418750D03*
D11*
X315118750Y-48418750D03*
G04 #@! TD*
G04 #@! TO.C,ONE1*
X51593750Y-86518750D03*
D10*
X46513750Y-86518750D03*
X56673750Y-86518750D03*
G04 #@! TD*
D11*
G04 #@! TO.C,ONE2*
X153193750Y-29368750D03*
D10*
X148113750Y-29368750D03*
X158273750Y-29368750D03*
G04 #@! TD*
D11*
G04 #@! TO.C,PER1*
X329406250Y-86518750D03*
D10*
X324326250Y-86518750D03*
X334486250Y-86518750D03*
G04 #@! TD*
G04 #@! TO.C,PKEY1*
X339248750Y-48418750D03*
X329088750Y-48418750D03*
D11*
X334168750Y-48418750D03*
G04 #@! TD*
G04 #@! TO.C,PLUS1*
X32543750Y-67468750D03*
D10*
X27463750Y-67468750D03*
X37623750Y-67468750D03*
G04 #@! TD*
G04 #@! TO.C,QKEY1*
X167798750Y-48418750D03*
X157638750Y-48418750D03*
D11*
X162718750Y-48418750D03*
G04 #@! TD*
D10*
G04 #@! TO.C,QUT1*
X363061250Y-67468750D03*
X352901250Y-67468750D03*
D11*
X357981250Y-67468750D03*
G04 #@! TD*
D10*
G04 #@! TO.C,RAISE1*
X379730000Y-105568750D03*
X369570000Y-105568750D03*
D11*
X374650000Y-105568750D03*
G04 #@! TD*
G04 #@! TO.C,RGHT1*
X130968750Y-127793750D03*
D10*
X125888750Y-127793750D03*
X136048750Y-127793750D03*
G04 #@! TD*
D11*
G04 #@! TO.C,RKEY1*
X219868750Y-48418750D03*
D10*
X214788750Y-48418750D03*
X224948750Y-48418750D03*
G04 #@! TD*
D11*
G04 #@! TO.C,SEVEN1*
X51593750Y-48418750D03*
D10*
X46513750Y-48418750D03*
X56673750Y-48418750D03*
G04 #@! TD*
D11*
G04 #@! TO.C,SEVEN2*
X267493750Y-29368750D03*
D10*
X262413750Y-29368750D03*
X272573750Y-29368750D03*
G04 #@! TD*
D11*
G04 #@! TO.C,SHIFT1*
X157988000Y-94773750D03*
X134112000Y-94773750D03*
D12*
X157988000Y-79533750D03*
X134112000Y-79533750D03*
D10*
X151130000Y-86518750D03*
X140970000Y-86518750D03*
D11*
X146050000Y-86518750D03*
G04 #@! TD*
G04 #@! TO.C,SHIFT2*
X384175000Y-86518750D03*
D10*
X379095000Y-86518750D03*
X389255000Y-86518750D03*
D12*
X372237000Y-79533750D03*
X396113000Y-79533750D03*
D11*
X372237000Y-94773750D03*
X396113000Y-94773750D03*
G04 #@! TD*
D10*
G04 #@! TO.C,SIX1*
X94773750Y-67468750D03*
X84613750Y-67468750D03*
D11*
X89693750Y-67468750D03*
G04 #@! TD*
G04 #@! TO.C,SIX2*
X248443750Y-29368750D03*
D10*
X243363750Y-29368750D03*
X253523750Y-29368750D03*
G04 #@! TD*
G04 #@! TO.C,SKEY1*
X191611250Y-67468750D03*
X181451250Y-67468750D03*
D11*
X186531250Y-67468750D03*
G04 #@! TD*
G04 #@! TO.C,SPC1*
X255587500Y-105568750D03*
D10*
X250507500Y-105568750D03*
X260667500Y-105568750D03*
D12*
X205587600Y-98583750D03*
X305587400Y-98583750D03*
D11*
X205587600Y-113823750D03*
X305587400Y-113823750D03*
G04 #@! TD*
G04 #@! TO.C,TAB1*
X138906250Y-48418750D03*
D10*
X133826250Y-48418750D03*
X143986250Y-48418750D03*
G04 #@! TD*
D11*
G04 #@! TO.C,THREE1*
X89693750Y-86518750D03*
D10*
X84613750Y-86518750D03*
X94773750Y-86518750D03*
G04 #@! TD*
D11*
G04 #@! TO.C,THREE2*
X191293750Y-29368750D03*
D10*
X186213750Y-29368750D03*
X196373750Y-29368750D03*
G04 #@! TD*
D11*
G04 #@! TO.C,TILDE1*
X134143750Y-29368750D03*
D10*
X129063750Y-29368750D03*
X139223750Y-29368750D03*
G04 #@! TD*
G04 #@! TO.C,TKEY1*
X243998750Y-48418750D03*
X233838750Y-48418750D03*
D11*
X238918750Y-48418750D03*
G04 #@! TD*
G04 #@! TO.C,TWO1*
X70643750Y-86518750D03*
D10*
X65563750Y-86518750D03*
X75723750Y-86518750D03*
G04 #@! TD*
D11*
G04 #@! TO.C,TWO2*
X172243750Y-29368750D03*
D10*
X167163750Y-29368750D03*
X177323750Y-29368750D03*
G04 #@! TD*
G04 #@! TO.C,UKEY1*
X282098750Y-48418750D03*
X271938750Y-48418750D03*
D11*
X277018750Y-48418750D03*
G04 #@! TD*
G04 #@! TO.C,UP1*
X111918750Y-108743750D03*
D10*
X106838750Y-108743750D03*
X116998750Y-108743750D03*
G04 #@! TD*
D13*
G04 #@! TO.C,USB1*
X104300000Y-24693000D03*
X111600000Y-24693000D03*
X111600000Y-20193000D03*
X104300000Y-20193000D03*
G04 #@! TD*
D10*
G04 #@! TO.C,VKEY1*
X239236250Y-86518750D03*
X229076250Y-86518750D03*
D11*
X234156250Y-86518750D03*
G04 #@! TD*
D10*
G04 #@! TO.C,WIN1*
X165417500Y-105568750D03*
X155257500Y-105568750D03*
D11*
X160337500Y-105568750D03*
G04 #@! TD*
D10*
G04 #@! TO.C,WKEY1*
X186848750Y-48418750D03*
X176688750Y-48418750D03*
D11*
X181768750Y-48418750D03*
G04 #@! TD*
D10*
G04 #@! TO.C,XKEY1*
X201136250Y-86518750D03*
X190976250Y-86518750D03*
D11*
X196056250Y-86518750D03*
G04 #@! TD*
G04 #@! TO.C,YKEY1*
X257968750Y-48418750D03*
D10*
X252888750Y-48418750D03*
X263048750Y-48418750D03*
G04 #@! TD*
D11*
G04 #@! TO.C,ZERO1*
X73056750Y-113823750D03*
X49180750Y-113823750D03*
D12*
X73056750Y-98583750D03*
X49180750Y-98583750D03*
D10*
X66198750Y-105568750D03*
X56038750Y-105568750D03*
D11*
X61118750Y-105568750D03*
G04 #@! TD*
G04 #@! TO.C,ZERO2*
X324643750Y-29368750D03*
D10*
X319563750Y-29368750D03*
X329723750Y-29368750D03*
G04 #@! TD*
G04 #@! TO.C,ZKEY1*
X182086250Y-86518750D03*
X171926250Y-86518750D03*
D11*
X177006250Y-86518750D03*
G04 #@! TD*
G04 #@! TO.C,ENTER1*
X32543750Y-96075500D03*
D10*
X32543750Y-90995500D03*
X32543750Y-101155500D03*
D12*
X39528750Y-84137500D03*
X39528750Y-108013500D03*
D11*
X24288750Y-84137500D03*
X24288750Y-108013500D03*
G04 #@! TD*
M02*
