M48
;DRILL file {KiCad (5.0.1-3-g963ef8bb5)} date Friday, March 29, 2019 at 02:03:26 AM
;FORMAT={-:-/ absolute / inch / decimal}
FMAT,2
INCH,TZ
T1C0.0157
T2C0.0276
T3C0.0409
T4C0.0579
%
G90
G05
M72
T1
X1.205Y-2.345
X1.945Y-2.3
X2.67Y-1.53
X4.Y-0.975
X4.1273Y-1.6123
X4.1494Y-1.975
X4.17Y-2.275
X4.19Y-1.635
X4.21Y-2.345
X4.27Y-2.315
X4.28Y-2.845
X4.31Y-1.57
X4.315Y-1.77
X4.324Y-1.7306
X4.335Y-1.625
X4.355Y-1.68
X4.3639Y-1.73
X4.375Y-2.07
X4.415Y-1.875
X4.415Y-2.035
X4.435Y-1.515
X4.5Y-2.39
X4.6519Y-2.343
X4.6805Y-2.3713
X4.6839Y-2.9223
X4.7007Y-2.8867
X4.7091Y-2.34
X4.7378Y-2.375
X4.7498Y-2.8953
X4.7664Y-2.3298
X4.7845Y-2.8462
X4.795Y-2.365
X4.8Y-2.81
X4.845Y-2.8748
X4.87Y-5.025
X4.95Y-1.15
X4.975Y-4.235
X4.98Y-2.285
X5.165Y-1.785
X5.41Y-2.245
X5.585Y-2.235
X5.625Y-2.215
X5.655Y-2.175
X5.67Y-2.3
X5.69Y-2.25
X5.72Y-2.08
X5.735Y-2.23
X5.83Y-2.22
X5.895Y-2.185
X7.38Y-1.56
X7.595Y-1.7277
X7.625Y-2.67
X7.68Y-2.075
X8.015Y-3.435
X8.445Y-2.22
X9.215Y-2.285
X9.955Y-2.315
X10.7Y-2.36
X11.625Y-2.93
X12.4Y-2.96
X13.195Y-2.99
X13.895Y-3.02
X14.475Y-3.075
X14.9Y-3.23
X16.315Y-1.53
T3
X10.2937Y-2.8562
X10.3937Y-2.8562
X11.0437Y-2.8562
X11.1437Y-2.8562
X10.4812Y-1.3562
X10.5812Y-1.3562
X16.4812Y-2.8562
X16.5813Y-2.8562
X4.3563Y-5.2313
X4.4562Y-5.2313
X2.7312Y-3.6062
X2.8312Y-3.6062
X12.9187Y-3.6062
X13.0187Y-3.6062
X14.0437Y-2.8562
X14.1437Y-2.8562
X8.4187Y-3.6062
X8.5187Y-3.6062
X10.0125Y-4.3563
X10.1125Y-4.3563
X15.2625Y-2.8562
X15.3625Y-2.8562
X4.3563Y-4.4813
X4.4562Y-4.4813
X16.4812Y-2.1062
X16.5813Y-2.1062
X7.2Y-4.3563
X7.3Y-4.3563
X8.9812Y-1.3562
X9.0812Y-1.3562
X5.4188Y-2.1062
X5.5187Y-2.1062
X5.1063Y-5.2313
X5.2062Y-5.2313
X11.6062Y-2.1062
X11.7062Y-2.1062
X1.2312Y-2.1062
X1.3313Y-2.1062
X12.3562Y-2.1062
X12.4562Y-2.1062
X9.3562Y-2.1062
X9.4562Y-2.1062
X5.5125Y-2.8562
X5.6125Y-2.8562
X1.9812Y-2.8562
X2.0812Y-2.8562
X16.4812Y-1.3562
X16.5813Y-1.3562
X2.7312Y-2.8562
X2.8312Y-2.8562
X15.5437Y-2.1062
X15.6437Y-2.1062
X3.4812Y-2.1062
X3.5812Y-2.1062
X7.1063Y-2.1062
X7.2062Y-2.1062
X10.6687Y-3.6062
X10.7687Y-3.6062
X8.6062Y-2.1062
X8.7062Y-2.1062
X9.7312Y-1.3562
X9.8312Y-1.3562
X3.6062Y-5.2313
X3.7062Y-5.2313
X1.9812Y-3.6062
X2.0812Y-3.6062
X1.9812Y-1.3562
X2.0812Y-1.3562
X15.075Y-3.6062
X15.175Y-3.6062
X1.2312Y-2.8562
X1.3313Y-2.8562
X3.4812Y-2.8562
X3.5812Y-2.8562
X12.7312Y-1.3562
X12.8312Y-1.3562
X1.0813Y-3.7325
X1.0813Y-3.8325
X5.325Y-4.3563
X5.425Y-4.3563
X16.4812Y-3.6062
X16.5813Y-3.6062
X14.2312Y-1.3562
X14.3312Y-1.3562
X2.7312Y-1.3562
X2.8312Y-1.3562
X9.5437Y-2.8562
X9.6437Y-2.8562
X11.9812Y-1.3562
X12.0812Y-1.3562
X13.2937Y-2.8562
X13.3937Y-2.8562
X1.9812Y-2.1062
X2.0812Y-2.1062
X7.4813Y-1.3562
X7.5812Y-1.3562
X6.5438Y-2.8562
X6.6437Y-2.8562
X8.0437Y-2.8562
X8.1437Y-2.8562
X2.7312Y-2.1062
X2.8312Y-2.1062
X7.8563Y-2.1062
X7.9562Y-2.1062
X15.3562Y-1.3562
X15.4562Y-1.3562
X1.2312Y-1.3562
X1.3313Y-1.3562
X13.1062Y-2.1062
X13.2062Y-2.1062
X6.3563Y-2.1062
X6.4562Y-2.1062
X13.6687Y-3.6062
X13.7687Y-3.6062
X10.8562Y-2.1062
X10.9562Y-2.1062
X13.8562Y-2.1062
X13.9562Y-2.1062
X12.1687Y-3.6062
X12.2687Y-3.6062
X6.9188Y-3.6062
X7.0187Y-3.6062
X5.7Y-3.6062
X5.8Y-3.6062
X14.6062Y-2.1062
X14.7062Y-2.1062
X9.1687Y-3.6062
X9.2687Y-3.6062
X11.2312Y-1.3562
X11.3312Y-1.3562
X13.7625Y-4.3563
X13.8625Y-4.3563
X5.2313Y-1.3562
X5.3312Y-1.3562
X2.3562Y-4.3563
X2.4562Y-4.3563
X12.825Y-4.3563
X12.925Y-4.3563
X13.4812Y-1.3562
X13.5812Y-1.3562
X8.2312Y-1.3562
X8.3312Y-1.3562
X6.2625Y-4.3563
X6.3625Y-4.3563
X7.6688Y-3.6062
X7.7687Y-3.6062
X11.7937Y-2.8562
X11.8937Y-2.8562
X3.4812Y-4.3563
X3.5812Y-4.3563
X3.4812Y-3.6062
X3.5812Y-3.6062
X12.5437Y-2.8562
X12.6437Y-2.8562
X5.9813Y-1.3562
X6.0812Y-1.3562
X9.9187Y-3.6062
X10.0187Y-3.6062
X10.1062Y-2.1062
X10.2062Y-2.1062
X6.7313Y-1.3562
X6.8312Y-1.3562
X7.2938Y-2.8562
X7.3937Y-2.8562
X14.7Y-4.3563
X14.8Y-4.3563
X8.7937Y-2.8562
X8.8937Y-2.8562
X3.4812Y-1.3562
X3.5812Y-1.3562
X11.4187Y-3.6062
X11.5187Y-3.6062
T4
X3.3813Y-3.3062
X3.4328Y-3.2488
X3.6297Y-3.2291
X3.6313Y-3.2062
X12.4437Y-2.5562
X12.4953Y-2.4988
X12.6922Y-2.4791
X12.6937Y-2.4562
X5.8812Y-1.0562
X5.9328Y-0.9988
X6.1297Y-0.9791
X6.1312Y-0.9562
X9.8187Y-3.3062
X9.8703Y-3.2488
X10.0672Y-3.2291
X10.0687Y-3.2062
X10.0062Y-1.8062
X10.0578Y-1.7488
X10.2547Y-1.7291
X10.2562Y-1.7063
X6.6312Y-1.0562
X6.6828Y-0.9988
X6.8797Y-0.9791
X6.8812Y-0.9562
X7.1937Y-2.5562
X7.2453Y-2.4988
X7.4422Y-2.4791
X7.4437Y-2.4562
X14.6Y-4.0562
X14.6516Y-3.9988
X14.8484Y-3.9791
X14.85Y-3.9562
X8.6937Y-2.5562
X8.7453Y-2.4988
X8.9422Y-2.4791
X8.9437Y-2.4562
X3.3813Y-1.0562
X3.4328Y-0.9988
X3.6297Y-0.9791
X3.6313Y-0.9562
X11.3187Y-3.3062
X11.3703Y-3.2488
X11.5672Y-3.2291
X11.5687Y-3.2062
X10.1937Y-2.5562
X10.2453Y-2.4988
X10.4422Y-2.4791
X10.4437Y-2.4562
X10.9437Y-2.5562
X10.9953Y-2.4988
X11.1922Y-2.4791
X11.1937Y-2.4562
X10.3812Y-1.0562
X10.4328Y-0.9988
X10.6297Y-0.9791
X10.6312Y-0.9562
X16.3812Y-2.5562
X16.4328Y-2.4988
X16.6297Y-2.4791
X16.6312Y-2.4562
X4.2562Y-4.9312
X4.3078Y-4.8738
X4.5047Y-4.8541
X4.5062Y-4.8312
X2.6313Y-3.3062
X2.6828Y-3.2488
X2.8797Y-3.2291
X2.8813Y-3.2062
X12.8187Y-3.3062
X12.8703Y-3.2488
X13.0672Y-3.2291
X13.0687Y-3.2062
X13.9437Y-2.5562
X13.9953Y-2.4988
X14.1922Y-2.4791
X14.1937Y-2.4562
X8.3187Y-3.3062
X8.3703Y-3.2488
X8.5672Y-3.2291
X8.5687Y-3.2062
X9.9125Y-4.0562
X9.9641Y-3.9988
X10.1609Y-3.9791
X10.1625Y-3.9562
X15.1625Y-2.5562
X15.2141Y-2.4988
X15.4109Y-2.4791
X15.4125Y-2.4562
X4.2562Y-4.1812
X4.3078Y-4.1238
X4.5047Y-4.1041
X4.5062Y-4.0812
X16.3812Y-1.8062
X16.4328Y-1.7488
X16.6297Y-1.7291
X16.6312Y-1.7063
X7.1Y-4.0562
X7.1516Y-3.9988
X7.3484Y-3.9791
X7.35Y-3.9562
X8.8812Y-1.0562
X8.9328Y-0.9988
X9.1297Y-0.9791
X9.1312Y-0.9562
X5.3187Y-1.8062
X5.3703Y-1.7488
X5.5672Y-1.7291
X5.5687Y-1.7063
X5.0062Y-4.9312
X5.0578Y-4.8738
X5.2547Y-4.8541
X5.2562Y-4.8312
X11.5062Y-1.8062
X11.5578Y-1.7488
X11.7547Y-1.7291
X11.7562Y-1.7063
X1.1312Y-1.8062
X1.1828Y-1.7488
X1.3797Y-1.7291
X1.3812Y-1.7063
X12.2562Y-1.8062
X12.3078Y-1.7488
X12.5047Y-1.7291
X12.5062Y-1.7063
X9.2562Y-1.8062
X9.3078Y-1.7488
X9.5047Y-1.7291
X9.5062Y-1.7063
X5.4125Y-2.5562
X5.4641Y-2.4988
X5.6609Y-2.4791
X5.6625Y-2.4562
X1.8812Y-2.5562
X1.9328Y-2.4988
X2.1297Y-2.4791
X2.1313Y-2.4562
X16.3812Y-1.0562
X16.4328Y-0.9988
X16.6297Y-0.9791
X16.6312Y-0.9562
X2.6313Y-2.5562
X2.6828Y-2.4988
X2.8797Y-2.4791
X2.8813Y-2.4562
X15.4437Y-1.8062
X15.4953Y-1.7488
X15.6922Y-1.7291
X15.6937Y-1.7063
X3.3813Y-1.8062
X3.4328Y-1.7488
X3.6297Y-1.7291
X3.6313Y-1.7063
X7.0062Y-1.8062
X7.0578Y-1.7488
X7.2547Y-1.7291
X7.2562Y-1.7063
X10.5687Y-3.3062
X10.6203Y-3.2488
X10.8172Y-3.2291
X10.8187Y-3.2062
X8.5062Y-1.8062
X8.5578Y-1.7488
X8.7547Y-1.7291
X8.7562Y-1.7063
X9.6312Y-1.0562
X9.6828Y-0.9988
X9.8797Y-0.9791
X9.8812Y-0.9562
X3.5063Y-4.9312
X3.5578Y-4.8738
X3.7547Y-4.8541
X3.7563Y-4.8312
X1.8812Y-3.3062
X1.9328Y-3.2488
X2.1297Y-3.2291
X2.1313Y-3.2062
X1.8812Y-1.0562
X1.9328Y-0.9988
X2.1297Y-0.9791
X2.1313Y-0.9562
X14.975Y-3.3062
X15.0266Y-3.2488
X15.2234Y-3.2291
X15.225Y-3.2062
X1.1312Y-2.5562
X1.1828Y-2.4988
X1.3797Y-2.4791
X1.3812Y-2.4562
X3.3813Y-2.5562
X3.4328Y-2.4988
X3.6297Y-2.4791
X3.6313Y-2.4562
X12.6312Y-1.0562
X12.6828Y-0.9988
X12.8797Y-0.9791
X12.8812Y-0.9562
X1.3812Y-3.6325
X1.4387Y-3.6841
X1.4584Y-3.8809
X1.4812Y-3.8825
X5.225Y-4.0562
X5.2766Y-3.9988
X5.4734Y-3.9791
X5.475Y-3.9562
X16.3812Y-3.3062
X16.4328Y-3.2488
X16.6297Y-3.2291
X16.6312Y-3.2062
X14.1312Y-1.0562
X14.1828Y-0.9988
X14.3797Y-0.9791
X14.3812Y-0.9562
X2.6313Y-1.0562
X2.6828Y-0.9988
X2.8797Y-0.9791
X2.8813Y-0.9562
X9.4437Y-2.5562
X9.4953Y-2.4988
X9.6922Y-2.4791
X9.6937Y-2.4562
X11.8812Y-1.0562
X11.9328Y-0.9988
X12.1297Y-0.9791
X12.1312Y-0.9562
X13.1937Y-2.5562
X13.2453Y-2.4988
X13.4422Y-2.4791
X13.4437Y-2.4562
X1.8812Y-1.8062
X1.9328Y-1.7488
X2.1297Y-1.7291
X2.1313Y-1.7063
X7.3812Y-1.0562
X7.4328Y-0.9988
X7.6297Y-0.9791
X7.6312Y-0.9562
X6.4437Y-2.5562
X6.4953Y-2.4988
X6.6922Y-2.4791
X6.6937Y-2.4562
X7.9437Y-2.5562
X7.9953Y-2.4988
X8.1922Y-2.4791
X8.1937Y-2.4562
X2.6313Y-1.8062
X2.6828Y-1.7488
X2.8797Y-1.7291
X2.8813Y-1.7063
X7.7562Y-1.8062
X7.8078Y-1.7488
X8.0047Y-1.7291
X8.0062Y-1.7063
X15.2562Y-1.0562
X15.3078Y-0.9988
X15.5047Y-0.9791
X15.5062Y-0.9562
X1.1312Y-1.0562
X1.1828Y-0.9988
X1.3797Y-0.9791
X1.3812Y-0.9562
X13.0062Y-1.8062
X13.0578Y-1.7488
X13.2547Y-1.7291
X13.2562Y-1.7063
X6.2562Y-1.8062
X6.3078Y-1.7488
X6.5047Y-1.7291
X6.5062Y-1.7063
X13.5687Y-3.3062
X13.6203Y-3.2488
X13.8172Y-3.2291
X13.8187Y-3.2062
X10.7562Y-1.8062
X10.8078Y-1.7488
X11.0047Y-1.7291
X11.0062Y-1.7063
X13.7562Y-1.8062
X13.8078Y-1.7488
X14.0047Y-1.7291
X14.0062Y-1.7063
X12.0687Y-3.3062
X12.1203Y-3.2488
X12.3172Y-3.2291
X12.3187Y-3.2062
X6.8187Y-3.3062
X6.8703Y-3.2488
X7.0672Y-3.2291
X7.0687Y-3.2062
X5.6Y-3.3062
X5.6516Y-3.2488
X5.8484Y-3.2291
X5.85Y-3.2062
X14.5062Y-1.8062
X14.5578Y-1.7488
X14.7547Y-1.7291
X14.7562Y-1.7063
X9.0687Y-3.3062
X9.1203Y-3.2488
X9.3172Y-3.2291
X9.3187Y-3.2062
X11.1312Y-1.0562
X11.1828Y-0.9988
X11.3797Y-0.9791
X11.3812Y-0.9562
X13.6625Y-4.0562
X13.7141Y-3.9988
X13.9109Y-3.9791
X13.9125Y-3.9562
X5.1312Y-1.0562
X5.1828Y-0.9988
X5.3797Y-0.9791
X5.3812Y-0.9562
X2.2563Y-4.0562
X2.3078Y-3.9988
X2.5047Y-3.9791
X2.5063Y-3.9562
X12.725Y-4.0562
X12.7766Y-3.9988
X12.9734Y-3.9791
X12.975Y-3.9562
X13.3812Y-1.0562
X13.4328Y-0.9988
X13.6297Y-0.9791
X13.6312Y-0.9562
X8.1312Y-1.0562
X8.1828Y-0.9988
X8.3797Y-0.9791
X8.3812Y-0.9562
X6.1625Y-4.0562
X6.2141Y-3.9988
X6.4109Y-3.9791
X6.4125Y-3.9562
X7.5687Y-3.3062
X7.6203Y-3.2488
X7.8172Y-3.2291
X7.8187Y-3.2062
X11.6937Y-2.5562
X11.7453Y-2.4988
X11.9422Y-2.4791
X11.9437Y-2.4562
X3.3813Y-4.0562
X3.4328Y-3.9988
X3.6297Y-3.9791
X3.6313Y-3.9562
T2
X4.1063Y-0.7714G85X4.1063Y-0.8186
G05
X4.1063Y-0.9485G85X4.1063Y-0.9958
G05
X4.3937Y-0.7714G85X4.3937Y-0.8186
G05
X4.3937Y-0.9485G85X4.3937Y-0.9958
G05
T0
M30
