M48
;DRILL file {KiCad (5.0.1-3-g963ef8bb5)} date Friday, March 29, 2019 at 02:03:26 AM
;FORMAT={-:-/ absolute / inch / decimal}
FMAT,2
INCH,TZ
T1C0.0689
T2C0.1200
T3C0.1570
%
G90
G05
M72
T1
X2.5812Y-3.4062
X2.9812Y-3.4062
X12.7687Y-3.4062
X13.1687Y-3.4062
X13.8937Y-2.6562
X14.2937Y-2.6562
X8.2687Y-3.4062
X8.6687Y-3.4062
X9.8625Y-4.1562
X10.2625Y-4.1562
X15.1125Y-2.6562
X15.5125Y-2.6562
X4.2062Y-4.2812
X4.6063Y-4.2812
X16.3313Y-1.9062
X16.7312Y-1.9062
X7.05Y-4.1562
X7.45Y-4.1562
X8.8312Y-1.1562
X9.2312Y-1.1562
X5.2687Y-1.9062
X5.6688Y-1.9062
X4.9562Y-5.0312
X5.3563Y-5.0312
X11.4562Y-1.9062
X11.8562Y-1.9062
X1.0813Y-1.9062
X1.4812Y-1.9062
X12.2062Y-1.9062
X12.6062Y-1.9062
X9.2062Y-1.9062
X9.6062Y-1.9062
X5.3625Y-2.6562
X5.7625Y-2.6562
X1.8313Y-2.6562
X2.2312Y-2.6562
X16.3313Y-1.1562
X16.7312Y-1.1562
X2.5812Y-2.6562
X2.9812Y-2.6562
X15.3937Y-1.9062
X15.7937Y-1.9062
X3.3312Y-1.9062
X3.7312Y-1.9062
X6.9562Y-1.9062
X7.3563Y-1.9062
X10.5187Y-3.4062
X10.9187Y-3.4062
X8.4562Y-1.9062
X8.8562Y-1.9062
X9.5812Y-1.1562
X9.9812Y-1.1562
X3.4562Y-5.0312
X3.8562Y-5.0312
X1.8313Y-3.4062
X2.2312Y-3.4062
X1.8313Y-1.1562
X2.2312Y-1.1562
X14.925Y-3.4062
X15.325Y-3.4062
X1.0813Y-2.6562
X1.4812Y-2.6562
X3.3312Y-2.6562
X3.7312Y-2.6562
X12.5812Y-1.1562
X12.9812Y-1.1562
X1.2812Y-3.5825
X1.2812Y-3.9825
X5.175Y-4.1562
X5.575Y-4.1562
X16.3313Y-3.4062
X16.7312Y-3.4062
X14.0812Y-1.1562
X14.4812Y-1.1562
X2.5812Y-1.1562
X2.9812Y-1.1562
X9.3937Y-2.6562
X9.7937Y-2.6562
X11.8312Y-1.1562
X12.2312Y-1.1562
X13.1437Y-2.6562
X13.5437Y-2.6562
X1.8313Y-1.9062
X2.2312Y-1.9062
X7.3312Y-1.1562
X7.7313Y-1.1562
X6.3937Y-2.6562
X6.7938Y-2.6562
X7.8937Y-2.6562
X8.2937Y-2.6562
X2.5812Y-1.9062
X2.9812Y-1.9062
X7.7062Y-1.9062
X8.1062Y-1.9062
X15.2062Y-1.1562
X15.6062Y-1.1562
X1.0813Y-1.1562
X1.4812Y-1.1562
X12.9562Y-1.9062
X13.3562Y-1.9062
X6.2062Y-1.9062
X6.6063Y-1.9062
X13.5187Y-3.4062
X13.9187Y-3.4062
X10.7062Y-1.9062
X11.1062Y-1.9062
X13.7062Y-1.9062
X14.1062Y-1.9062
X12.0187Y-3.4062
X12.4187Y-3.4062
X6.7687Y-3.4062
X7.1688Y-3.4062
X5.55Y-3.4062
X5.95Y-3.4062
X14.4562Y-1.9062
X14.8562Y-1.9062
X9.0187Y-3.4062
X9.4187Y-3.4062
X11.0812Y-1.1562
X11.4812Y-1.1562
X13.6125Y-4.1562
X14.0125Y-4.1562
X5.0812Y-1.1562
X5.4813Y-1.1562
X2.2062Y-4.1562
X2.6062Y-4.1562
X12.675Y-4.1562
X13.075Y-4.1562
X13.3312Y-1.1562
X13.7312Y-1.1562
X8.0812Y-1.1562
X8.4812Y-1.1562
X6.1125Y-4.1562
X6.5125Y-4.1562
X7.5187Y-3.4062
X7.9188Y-3.4062
X11.6437Y-2.6562
X12.0437Y-2.6562
X3.3312Y-4.1562
X3.7312Y-4.1562
X3.3312Y-3.4062
X3.7312Y-3.4062
X12.3937Y-2.6562
X12.7937Y-2.6562
X5.8312Y-1.1562
X6.2313Y-1.1562
X9.7687Y-3.4062
X10.1687Y-3.4062
X9.9562Y-1.9062
X10.3562Y-1.9062
X6.5812Y-1.1562
X6.9813Y-1.1562
X7.1437Y-2.6562
X7.5438Y-2.6562
X14.55Y-4.1562
X14.95Y-4.1562
X8.6437Y-2.6562
X9.0437Y-2.6562
X3.3312Y-1.1562
X3.7312Y-1.1562
X11.2687Y-3.4062
X11.6687Y-3.4062
X10.1437Y-2.6562
X10.5437Y-2.6562
X10.8937Y-2.6562
X11.2937Y-2.6562
X10.3312Y-1.1562
X10.7312Y-1.1562
X16.3313Y-2.6562
X16.7312Y-2.6562
X4.2062Y-5.0312
X4.6063Y-5.0312
T2
X5.28Y-3.1313
X8.094Y-3.8813
X12.031Y-3.8813
X14.8425Y-2.3813
X15.7825Y-2.3813
X14.655Y-3.1313
X15.595Y-3.1313
X1.5562Y-3.3125
X1.5562Y-4.2525
X14.9362Y-0.8812
X15.8762Y-0.8812
X6.22Y-3.1313
X1.9363Y-3.8813
X2.8762Y-3.8813
T3
X10.3438Y-2.6562
X11.0938Y-2.6562
X10.5312Y-1.1562
X16.5312Y-2.6562
X4.4062Y-5.0312
X2.7812Y-3.4062
X12.9688Y-3.4062
X14.0938Y-2.6562
X8.4688Y-3.4062
X8.094Y-4.4813
X10.0625Y-4.1562
X12.031Y-4.4813
X14.8425Y-2.9812
X15.3125Y-2.6562
X15.7825Y-2.9812
X4.4062Y-4.2812
X16.5312Y-1.9062
X7.25Y-4.1562
X9.0312Y-1.1562
X5.4688Y-1.9062
X5.1562Y-5.0312
X11.6562Y-1.9062
X1.2812Y-1.9062
X12.4062Y-1.9062
X9.4062Y-1.9062
X5.5625Y-2.6562
X2.0312Y-2.6562
X16.5312Y-1.1562
X2.7812Y-2.6562
X15.5938Y-1.9062
X3.5312Y-1.9062
X7.1562Y-1.9062
X10.7188Y-3.4062
X8.6562Y-1.9062
X9.7812Y-1.1562
X3.6562Y-5.0312
X2.0312Y-3.4062
X2.0312Y-1.1562
X14.655Y-3.7312
X15.125Y-3.4062
X15.595Y-3.7312
X1.2812Y-2.6562
X3.5312Y-2.6562
X12.7812Y-1.1562
X0.9562Y-3.3125
X0.9562Y-4.2525
X1.2812Y-3.7825
X5.375Y-4.1562
X16.5312Y-3.4062
X14.2812Y-1.1562
X2.7812Y-1.1562
X9.5938Y-2.6562
X12.0312Y-1.1562
X13.3438Y-2.6562
X2.0312Y-1.9062
X7.5312Y-1.1562
X6.5938Y-2.6562
X8.0938Y-2.6562
X2.7812Y-1.9062
X7.9062Y-1.9062
X14.9362Y-1.4812
X15.4062Y-1.1562
X15.8762Y-1.4812
X1.2812Y-1.1562
X13.1562Y-1.9062
X6.4062Y-1.9062
X13.7188Y-3.4062
X10.9062Y-1.9062
X13.9062Y-1.9062
X12.2188Y-3.4062
X6.9688Y-3.4062
X5.28Y-3.7312
X5.75Y-3.4062
X6.22Y-3.7312
X14.6562Y-1.9062
X9.2188Y-3.4062
X11.2812Y-1.1562
X13.8125Y-4.1562
X5.2812Y-1.1562
X1.9363Y-4.4813
X2.4062Y-4.1562
X2.8762Y-4.4813
X12.875Y-4.1562
X13.5312Y-1.1562
X8.2812Y-1.1562
X6.3125Y-4.1562
X7.7188Y-3.4062
X11.8438Y-2.6562
X3.5312Y-4.1562
X3.5312Y-3.4062
X12.5938Y-2.6562
X6.0312Y-1.1562
X9.9688Y-3.4062
X10.1562Y-1.9062
X6.7812Y-1.1562
X7.3438Y-2.6562
X14.75Y-4.1562
X8.8438Y-2.6562
X3.5312Y-1.1562
X11.4688Y-3.4062
T0
M30
